<?xml version="1.0" encoding="UTF-8"?>
<svg viewBox="0 0 11.468 28.03" xmlns="http://www.w3.org/2000/svg">
  <g transform="translate(-230 276.26) rotate(-90)" data-name="Group 5102">
    <path transform="translate(-48.778 -20.862)" d="M315.829,259.04a.6.6,0,0,1-.642.551h-10.65a.6.6,0,0,1-.642-.551v-4.89a.6.6,0,0,1,.642-.551h10.65a.6.6,0,0,1,.642.551Z" fill="#581003" data-name="Path 3293"/>
    <rect transform="translate(255.12 234.08)" width="11.935" height="3.337" fill="#7b1f1b" data-name="Rectangle 1058"/>
    <rect transform="translate(255.12 237.5)" width="11.935" height=".368" fill="#7b1f1b" data-name="Rectangle 1059"/>
    <path transform="translate(-48.778 -61.544)" d="M315.82,299.835a.5.5,0,0,0,.009-.087v-.236H303.894v.236a.493.493,0,0,0,.008.087Z" fill="#7b1f1b" data-name="Path 3294"/>
    <path transform="translate(-49.082 -64.831)" d="M304.239,303.225a.644.644,0,0,0,.6.368h10.65a.643.643,0,0,0,.6-.368Z" fill="#7b1f1b" data-name="Path 3295"/>
    <rect transform="translate(255.12 233.69)" width="11.935" height=".3" fill="#7b1f1b" data-name="Rectangle 1060"/>
    <rect transform="translate(255.12 233.33)" width="11.935" height=".255" fill="#7b1f1b" data-name="Rectangle 1061"/>
    <path transform="translate(-48.792 -20.895)" d="M315.841,254.128a.612.612,0,0,0-.64-.528H304.55a.612.612,0,0,0-.64.528Z" fill="#7b1f1b" data-name="Path 3296"/>
    <path transform="translate(-48.778 -32.759)" d="M315.829,269.725c0,.153-.288.278-.642.278h-10.65c-.355,0-.642-.125-.642-.278V267.26c0-.153.287-.278.642-.278h10.65c.355,0,.642.125.642.278Z" fill="#8e1711" data-name="Path 3297"/>
    <g transform="translate(248.23 230)" data-name="Group 5091">
      <path transform="translate(0 5.052)" d="M.681,0H3.649a.681.681,0,0,1,.681.681v0a.681.681,0,0,1-.681.681H.681A.681.681,0,0,1,0,.681v0A.681.681,0,0,1,.681,0Z" data-name="Rectangle 1062"/>
      <path transform="translate(-252.84 -261.47)" d="M258.846,265.522H256.6c-2.372.025-3.155.847-3.155,1.131v1.091c0,.284.844,1.165,2.815,1.114l2.584,0Z" fill="#a7170d" data-name="Path 3298"/>
      <path transform="translate(-269.79 -243.93)" d="M277.844,245.76s-4.357.857-5.125,3.155c0,0-1.237,4.376,5.125,4.655Z" fill="#c81c1a" data-name="Path 3299"/>
      <path transform="translate(-287.43 -243.93)" d="m295.48 245.76a4.609 4.609 0 0 0-2.853 3.155s-0.689 4.376 2.853 4.655z" fill="#a7170d" data-name="Path 3300"/>
      <g transform="translate(4.64)" data-name="Group 5090">
        <path transform="translate(-297.55 -257.25)" d="m300.18 260.75a2.179 2.179 0 0 0-1.334 1.417 2.746 2.746 0 0 0 1.4 3.168z" fill="#400900" data-name="Path 3301"/>
        <g transform="translate(1.028 3.278)" data-name="Group 5078">
          <path transform="translate(-302.3 -261.34)" d="M302.986,261.935a.234.234,0,0,0,.234.234h.644a.234.234,0,0,0,.234-.234h0a.234.234,0,0,0-.234-.234h-.644a.234.234,0,0,0-.234.234Z" fill="#7c140a" data-name="Path 3302"/>
          <g data-name="Group 5077">
            <path transform="translate(-297.08 -258.62)" d="M297.767,258.654s-.821.178-.67.719c.079.282.957.543,1.247.382.124-.068.144-.771.031-1.02C298.316,258.606,298,258.6,297.767,258.654Z" fill="#e95433" data-name="Path 3303"/>
            <path transform="translate(-303.93 -258.62)" d="m305.23 258.74c-0.042-0.092-0.216-0.123-0.4-0.112v1.175a0.67 0.67 0 0 0 0.366-0.044c0.127-0.068 0.147-0.771 0.034-1.019z" fill="#a8a7a1" data-name="Path 3304"/>
            <path transform="translate(-297.24 -258.62)" d="M297.262,259.115c.115-.341.667-.461.667-.461.232-.056.549-.048.608.081a1.165,1.165,0,0,1,.071.381Z" fill="#e95433" data-name="Path 3305"/>
          </g>
        </g>
        <g transform="translate(1.028 7.007)" data-name="Group 5080">
          <path transform="translate(-302.3 -293.91)" d="M302.986,294.5a.234.234,0,0,0,.234.234h.644a.234.234,0,0,0,.234-.234h0a.234.234,0,0,0-.234-.234h-.644a.234.234,0,0,0-.234.234Z" fill="#7c140a" data-name="Path 3306"/>
          <g data-name="Group 5079">
            <path transform="translate(-297.08 -291.18)" d="M297.767,291.216s-.821.178-.67.718c.079.282.957.543,1.247.382.124-.068.144-.771.031-1.02C298.316,291.168,298,291.159,297.767,291.216Z" fill="#e95433" data-name="Path 3307"/>
            <path transform="translate(-303.93 -291.18)" d="m305.23 291.3c-0.042-0.092-0.216-0.123-0.4-0.112v1.174a0.667 0.667 0 0 0 0.366-0.043c0.127-0.07 0.147-0.773 0.034-1.019z" fill="#a8a7a1" data-name="Path 3308"/>
            <path transform="translate(-297.24 -291.18)" d="M297.262,291.677c.115-.341.667-.461.667-.461.232-.057.549-.048.608.081a1.164,1.164,0,0,1,.071.38Z" fill="#e95433" data-name="Path 3309"/>
          </g>
        </g>
        <path transform="translate(-288.22 -266.11)" d="M290.7,271.937a.9.9,0,0,1-.555.816l-1.376.164a.538.538,0,0,1-.551-.523V271.3a.538.538,0,0,1,.551-.523l1.376.163c.3,0,.555.5.555.787Z" fill="#74160a" data-name="Path 3310"/>
        <path transform="translate(-288.22 -266.11)" d="M288.947,270.8l-.175-.021a.538.538,0,0,0-.551.523v1.094a.538.538,0,0,0,.551.523l.175-.021Z" fill="#fffce6" data-name="Path 3311"/>
        <path transform="translate(-292.08 -266.11)" d="M292.806,270.8l-.175-.021-.044,0v2.135l.044,0,.175-.021Z" fill="#878888" data-name="Path 3312"/>
        <g transform="translate(1.585)" data-name="Group 5089">
          <g transform="translate(.002 5.515)" data-name="Group 5084">
            <path transform="translate(-305.44 -278.7)" d="m307.96 278.78-2.064-0.085a5.138 5.138 0 0 0 0.238 1.55 14.931 14.931 0 0 0 1.046 2.167l0.3-0.272s-0.358-1.307-0.111-1.579a3.028 3.028 0 0 0 0.591-1.781z" fill="#a7170d" data-name="Path 3313"/>
            <g transform="translate(.099 4.051)" data-name="Group 5082">
              <path transform="translate(-302.76 -313.62)" d="M303.355,314.535c-.068-.525-.25-.936-.408-.92s-.23.456-.163.98.25.936.408.92S303.423,315.06,303.355,314.535Z" fill="#878888" data-name="Path 3314"/>
              <g transform="translate(.134)" data-name="Group 5081">
                <path transform="translate(-303.91 -313.62)" d="M304.374,314.535c.068.525,0,.964-.163.98a.094.094,0,0,1-.033,0,1.366,1.366,0,0,0,.108-.955c-.063-.488-.225-.878-.375-.917a.1.1,0,0,1,.054-.025C304.124,313.6,304.306,314.01,304.374,314.535Z" fill="#626362" data-name="Path 3315"/>
              </g>
            </g>
            <path transform="translate(-301.9 -296.82)" d="M302.023,301.848a.114.114,0,0,1-.088-.038.23.23,0,0,1-.028-.174c0-.006,0-.01,0-.013s.008-.076.04-.347c.057-.488.164-1.4.164-1.5,0-.165.11-.185.114-.186l1.553-.389.011.044-1.555.389s-.078.017-.078.142c0,.107-.1.983-.165,1.506-.022.185-.039.331-.039.342s0,.009,0,.018a.2.2,0,0,0,.017.139.071.071,0,0,0,.055.022Z" fill="#797a79" data-name="Path 3316"/>
            <g transform="translate(1.492 3.267)" data-name="Group 5083">
              <path transform="translate(-315.73 -307.35)" d="M316.806,309.208a.109.109,0,0,1-.069.138l-.263.074a.109.109,0,0,1-.132-.081l-.484-1.706a.109.109,0,0,1,.07-.138l.263-.075a.11.11,0,0,1,.132.081Z" fill="#313030" data-name="Path 3317"/>
              <path transform="translate(-314.76 -306.86)" d="M315.423,306.9c.009.03,0,.059-.02.065l-.588.172c-.02.006-.043-.014-.051-.044h0c-.009-.03,0-.059.02-.065l.588-.172c.02-.006.043.014.052.044Z" fill="#0c2518" data-name="Path 3318"/>
            </g>
          </g>
          <g data-name="Group 5088">
            <path transform="translate(-305.42 -247.03)" d="m307.95 252.84-2.065-0.151a3.346 3.346 0 0 1 0.192-1.215 18.72 18.72 0 0 1 1.092-2.2l0.3 0.272s-0.358 1.307-0.111 1.579a2.833 2.833 0 0 1 0.592 1.715z" fill="#a7170d" data-name="Path 3319"/>
            <g transform="translate(.099)" data-name="Group 5086">
              <path transform="translate(-302.74 -230)" d="M303.336,230.98c-.068.525-.25.937-.408.92s-.23-.456-.163-.98.25-.936.408-.92S303.4,230.456,303.336,230.98Z" fill="#878888" data-name="Path 3320"/>
              <g transform="translate(.134)" data-name="Group 5085">
                <path transform="translate(-303.89 -230)" d="M304.356,230.981c.068-.525-.005-.964-.163-.98a.1.1,0,0,0-.034,0,1.363,1.363,0,0,1,.108.956c-.063.488-.225.878-.374.917a.1.1,0,0,0,.054.025C304.106,231.917,304.288,231.506,304.356,230.981Z" fill="#626362" data-name="Path 3321"/>
              </g>
            </g>
            <path transform="translate(-301.88 -237.07)" d="M303.762,240.768l-1.557-.516h0s-.111-.021-.111-.185c0-.1-.107-1.013-.164-1.5-.032-.27-.04-.339-.04-.346a.1.1,0,0,0,0-.013.23.23,0,0,1,.028-.174A.114.114,0,0,1,302,238v.045a.07.07,0,0,0-.055.022.2.2,0,0,0-.017.139c0,.009,0,.015,0,.019s.018.156.04.341c.061.523.164,1.4.164,1.506,0,.125.074.141.077.141l1.56.517Z" fill="#797a79" data-name="Path 3322"/>
            <g transform="translate(1.494 .613)" data-name="Group 5087">
              <path transform="translate(-315.73 -235.28)" d="M316.806,235.5a.109.109,0,0,0-.069-.138l-.263-.075a.11.11,0,0,0-.132.081l-.484,1.706a.11.11,0,0,0,.07.138l.263.075a.11.11,0,0,0,.132-.081Z" fill="#313030" data-name="Path 3323"/>
              <path transform="translate(-314.76 -248.92)" d="M315.423,250.942c.009-.03,0-.059-.02-.065l-.588-.172c-.02-.006-.043.014-.051.044h0c-.009.03,0,.059.02.065l.588.172c.02.006.043-.014.052-.044Z" fill="#0c2518" data-name="Path 3324"/>
            </g>
          </g>
        </g>
        <path transform="translate(-309.28 -265.65)" d="M313.342,271.237c0,.541-.29.979-.648.979s-.648-.439-.648-.979.29-.979.648-.979S313.342,270.7,313.342,271.237Z" fill="#aeaeae" data-name="Path 3325"/>
        <path transform="translate(-309.28 -265.65)" d="M313.342,271.237c0,.541-.29.979-.648.979s-.648-.439-.648-.979.29-.979.648-.979S313.342,270.7,313.342,271.237Z" fill="#aeaeae" data-name="Path 3326"/>
        <path transform="translate(-311.68 -267.47)" d="M315.741,273.05c0,.409-.22.741-.491.741s-.49-.332-.49-.741.22-.741.49-.741S315.741,272.641,315.741,273.05Z" fill="#fff" data-name="Path 3327"/>
      </g>
      <path transform="translate(-270.78 -250)" d="m273.74 255.98a4.564 4.564 0 0 1 3.045-3.4s-2.969 0.847-3.045 3.4z" fill="#fff" data-name="Path 3328"/>
      <path transform="translate(-253.85 -262.95)" d="m254.59 268.55s0.287-1.051 2.357-1.332a5.274 5.274 0 0 0-1.994 0.519 1.108 1.108 0 0 0-0.363 0.813z" fill="#fff" data-name="Path 3329"/>
    </g>
    <g transform="translate(261.68 231.91)" data-name="Group 5101">
      <path transform="translate(-372.87 -248.62)" d="M375.951,250.606c0,.3-.179.543-.4.543h0c-.22,0-.4-.243-.4-.543v-1.245c0-.3.178-.543.4-.543h0c.22,0,.4.243.4.543Z" fill="#6a6b6a" data-name="Path 3330"/>
      <path transform="translate(-372.87 -287.53)" d="M375.951,294.624c0,.3-.179.543-.4.543h0c-.22,0-.4-.243-.4-.543v-1.245c0-.3.178-.543.4-.543h0c.22,0,.4.243.4.543Z" fill="#6a6b6a" data-name="Path 3331"/>
      <path transform="translate(-355.49 -260.69)" d="M370.076,266.025c0,.355-.492.642-1.1.642H356.589c-.606,0-1.1-.288-1.1-.642v-2.9c0-.355.491-.643,1.1-.643h12.389c.606,0,1.1.288,1.1.643Z" fill="#a7170d" data-name="Path 3332"/>
      <path transform="translate(-355.49 -280.84)" d="M369.529,286.589a5.961,5.961,0,0,1-4.21,1.852c-2.777.109-5.292-.039-5.292-.039s-3.621-.594-4.536-3.13Z" fill="#a7170d" data-name="Path 3333"/>
      <path transform="translate(-355.49 -247.07)" d="M369.529,248.959a5.961,5.961,0,0,0-4.21-1.852c-2.777-.109-5.292.039-5.292.039s-3.621.594-4.536,3.13Z" fill="#a7170d" data-name="Path 3334"/>
      <path transform="translate(-366.14 -280.84)" d="M378.782,286.327a4.773,4.773,0,0,1-3.371,1.483c-2.224.087-4.238-.031-4.238-.031s-2.9-.475-3.633-2.507Z" fill="#8e1711" data-name="Path 3335"/>
      <path transform="translate(-368.2 -252.88)" d="M380.567,255.081a4.545,4.545,0,0,0-3.21-1.412c-2.117-.083-4.035.03-4.035.03s-2.761.453-3.458,2.387Z" fill="#8e1711" data-name="Path 3336"/>
      <g transform="translate(8.036 1.508)" data-name="Group 5100">
        <path transform="translate(-426.04 -264.57)" d="M426.79,268.69c0,.086-.131.157-.292.157h0c-.161,0-.292-.07-.292-.157v-3.372c0-.087.131-.156.292-.156h0c.161,0,.292.07.292.156Z" fill="#a7170d" data-name="Path 3337"/>
        <g transform="translate(1.62)" data-name="Group 5094">
          <path transform="translate(-438.81 -263.5)" d="M439.137,265.291c0,.049-.07.09-.157.09h0c-.087,0-.157-.04-.157-.09v-1.25c0-.049.07-.09.157-.09h0c.087,0,.157.04.157.09Z" fill="#7c140a" data-name="Path 3338"/>
          <g data-name="Group 5093">
            <path transform="translate(-438.72 -262.79)" d="M439.829,263.377a.234.234,0,0,1-.234.234h-.644a.234.234,0,0,1-.234-.234h0a.234.234,0,0,1,.234-.234h.644a.234.234,0,0,1,.234.234Z" fill="#7c140a" data-name="Path 3339"/>
            <g transform="translate(.426)" data-name="Group 5092">
              <path transform="translate(-442.39 -260.06)" d="M443.075,260.1s.821.178.67.719c-.079.282-.957.543-1.247.382-.124-.068-.144-.771-.03-1.019C442.526,260.047,442.843,260.039,443.075,260.1Z" fill="#e95433" data-name="Path 3340"/>
              <path transform="translate(-442.39 -260.06)" d="m442.47 260.18c0.042-0.092 0.216-0.123 0.4-0.112v1.175a0.67 0.67 0 0 1-0.366-0.043c-0.127-0.069-0.147-0.772-0.034-1.02z" fill="#a8a7a1" data-name="Path 3341"/>
              <path transform="translate(-442.42 -260.06)" d="M443.769,260.557c-.115-.341-.667-.461-.667-.461-.232-.057-.549-.048-.608.081a1.166,1.166,0,0,0-.071.38Z" fill="#e95433" data-name="Path 3342"/>
            </g>
          </g>
        </g>
        <g transform="translate(1.62 2.825)" data-name="Group 5097">
          <path transform="translate(-438.81 -284.41)" d="M439.137,284.5c0-.05-.07-.09-.157-.09h0c-.087,0-.157.04-.157.09v1.25c0,.05.07.09.157.09h0c.087,0,.157-.04.157-.09Z" fill="#7c140a" data-name="Path 3343"/>
          <g transform="translate(0 .698)" data-name="Group 5096">
            <path transform="translate(-438.72 -293.15)" d="M439.829,293.742a.234.234,0,0,0-.234-.234h-.644a.234.234,0,0,0-.234.234h0a.234.234,0,0,0,.234.234h.644a.234.234,0,0,0,.234-.234Z" fill="#7c140a" data-name="Path 3344"/>
            <g transform="translate(.426)" data-name="Group 5095">
              <path transform="translate(-442.39 -290.43)" d="M443.075,291.577s.821-.178.67-.718c-.079-.282-.957-.543-1.247-.382-.124.069-.144.771-.03,1.02C442.526,291.625,442.843,291.634,443.075,291.577Z" fill="#e95433" data-name="Path 3345"/>
              <path transform="translate(-442.39 -290.43)" d="M442.467,291.5c.042.092.216.122.4.112v-1.175a.67.67,0,0,0-.366.043C442.374,290.547,442.354,291.25,442.467,291.5Z" fill="#a8a7a1" data-name="Path 3346"/>
              <path transform="translate(-442.42 -295.67)" d="M443.769,296.363c-.115.341-.667.461-.667.461-.232.057-.549.048-.608-.081a1.163,1.163,0,0,1-.071-.38Z" fill="#e95433" data-name="Path 3347"/>
            </g>
          </g>
        </g>
        <path transform="translate(-424.75 -261.4)" d="M425.811,262.1a.53.53,0,1,1-.53-.53A.53.53,0,0,1,425.811,262.1Z" fill="#a7170d" data-name="Path 3348"/>
        <path transform="translate(-424.75 -285.88)" d="M425.811,289.8a.53.53,0,1,1-.53-.53A.53.53,0,0,1,425.811,289.8Z" fill="#a7170d" data-name="Path 3349"/>
        <g transform="translate(3.626 1.442)" data-name="Group 5098">
          <rect width="1.688" height="1.723" fill="#e95433" data-name="Rectangle 1063"/>
          <rect width=".672" height="1.723" fill="#a8a7a1" data-name="Rectangle 1064"/>
          <rect width="1.688" height=".438" fill="#e95433" data-name="Rectangle 1065"/>
        </g>
        <g transform="translate(.774 .8)" fill="#c4c4c3" data-name="Group 5099">
          <path transform="translate(-431.42 -266.96)" d="M435.009,266.959h-3.124c-.255,0-.461.288-.461.642v1.723c0,.355.206.642.461.642h3.124c.255,0,.461-.288.461-.642V267.6C435.47,267.247,435.264,266.959,435.009,266.959Zm.111,2.233c0,.3-.162.551-.362.551H432.3c-.2,0-.362-.247-.362-.551v-1.479c0-.3.162-.551.362-.551h2.454c.2,0,.362.247.362.551Z" data-name="Path 3350"/>
          <path transform="translate(-442.46 -267.42)" d="M444.18,270.287a.136.136,0,0,1-.136.136h0a.136.136,0,0,1-.136-.136v-2.676a.136.136,0,0,1,.136-.136h0a.136.136,0,0,1,.136.136Z" data-name="Path 3351"/>
          <path transform="translate(-452.46 -267.42)" d="M455.493,270.287a.136.136,0,0,1-.136.136h0a.136.136,0,0,1-.136-.136v-2.676a.136.136,0,0,1,.136-.136h0a.136.136,0,0,1,.136.136Z" data-name="Path 3352"/>
        </g>
      </g>
      <path transform="translate(-359.88 -254.5)" d="M365.187,255.924a8.458,8.458,0,0,1-3.444,1.183c-1.6.318-1.253,1.249-1.253,1.249l.059.005-.059.005s-.343.931,1.253,1.248a8.459,8.459,0,0,1,3.444,1.183c1.229.691,3.487.873,3.732-1.616V257.54C368.674,255.051,366.416,255.233,365.187,255.924Z" fill="#543a22" data-name="Path 3353"/>
      <path transform="translate(-362.21 -257.75)" d="m367.09 259.53a7.152 7.152 0 0 1-2.913 1c-1.35 0.269-1.06 1.056-1.06 1.056h0.05-0.05s-0.29 0.787 1.06 1.056a7.153 7.153 0 0 1 2.913 1c1.039 0.584 2.948 0.738 3.155-1.366v-1.377c-0.206-2.107-2.115-1.954-3.155-1.369z" fill="#6e4c30" data-name="Path 3354"/>
      <path transform="translate(-366.14 -248.62)" d="m367.54 250.3a8.445 8.445 0 0 1 4.013-1.48 6.367 6.367 0 0 0-4.013 1.48z" fill="#fff" data-name="Path 3355"/>
      <path transform="translate(-378.8 -300.42)" d="m381.86 307.42a21.951 21.951 0 0 0 5.718 0.593s-4.502 0.053-5.718-0.593z" fill="#fff" data-name="Path 3356"/>
    </g>
  </g>
</svg>
