<svg xmlns="http://www.w3.org/2000/svg" xmlns:xlink="http://www.w3.org/1999/xlink" width="296" height="296" viewBox="0 0 296 296">
	<defs>
		<linearGradient id="linear-gradient" x1="0.5" x2="0.5" y2="1" gradientUnits="objectBoundingBox">
			<stop offset="0" stop-color="#ec77ab"/>
			<stop offset="1" stop-color="#7873f5"/>
		</linearGradient>
		<linearGradient id="linear-gradient-2" x1="0.5" x2="0.5" y2="1" gradientUnits="objectBoundingBox">
			<stop offset="0" stop-color="#ff9a44"/>
			<stop offset="1" stop-color="#fc6076"/>
		</linearGradient>
	</defs>
	<circle id="Ellipse_24" data-name="Ellipse 24" cx="148" cy="148" r="148" opacity="0.04" fill="url(#linear-gradient)"/>
	<g id="no_internet" data-name="no internet" transform="translate(90.418 83)">
		<g id="Group_349" data-name="Group 349" transform="translate(1.901 8.703)">
			<g id="Group_344" data-name="Group 344" transform="translate(0 12.1)">
				<g id="Group_340" data-name="Group 340" transform="translate(0 14.043)">
					<g id="Group_337" data-name="Group 337" transform="translate(50.792 43.983)">
						<path id="Path_449" data-name="Path 449" d="M266.609,332.341,256.471,310.4l-17.756,17.756L254.754,344.2Z" transform="translate(-238.715 -310.401)" fill="url(#linear-gradient-2)"/>
						<path id="Path_450" data-name="Path 450" d="M300.06,332.34l-6.369,6.369L283.553,316.77l6.369-6.369Z" transform="translate(-272.166 -310.401)" fill="url(#linear-gradient)"/>
						<g id="Group_336" data-name="Group 336" transform="translate(11.359 18.168)">
							<path id="Path_451" data-name="Path 451" d="M284.718,405.177a4.354,4.354,0,0,1,0-6.158l15.8-15.8a4.354,4.354,0,0,1,6.158,6.158l-15.8,15.8A4.354,4.354,0,0,1,284.718,405.177Z" transform="translate(-283.443 -381.94)" fill="url(#linear-gradient-2)"/>
						</g>
					</g>
					<g id="Group_339" data-name="Group 339">
						<path id="Path_452" data-name="Path 452" d="M85.558,168.625l21.94,10.138L89.742,196.519,73.7,180.48Z" transform="translate(-64.817 -160.647)" fill="url(#linear-gradient-2)"/>
						<path id="Path_453" data-name="Path 453" d="M123.609,178.764l-6.369,6.369L95.3,175l6.369-6.369Z" transform="translate(-80.928 -160.648)" fill="url(#linear-gradient)"/>
						<g id="Group_338" data-name="Group 338">
							<path id="Path_454" data-name="Path 454" d="M39.989,160.448a4.354,4.354,0,0,0,6.158,0l15.8-15.8a4.354,4.354,0,1,0-6.158-6.158l-15.8,15.8A4.354,4.354,0,0,0,39.989,160.448Z" transform="translate(-38.714 -137.211)" fill="url(#linear-gradient-2)"/>
						</g>
					</g>
				</g>
				<g id="Group_341" data-name="Group 341" transform="translate(19.864)">
					<path id="Path_455" data-name="Path 455" d="M138.381,161.632a3.8,3.8,0,0,0,4.067.865,89.666,89.666,0,0,0,30.344-20.2c17.257-17.257,25.977-38.85,24.892-57.163a3.336,3.336,0,0,0-3.126-3.127c-18.315-1.088-39.905,7.63-57.165,24.89a89.666,89.666,0,0,0-20.2,30.344,3.8,3.8,0,0,0,.865,4.067Z" transform="translate(-116.933 -81.916)" fill="#d7dde6"/>
					<path id="Path_456" data-name="Path 456" d="M218.688,142.3a89.623,89.623,0,0,1-30.347,20.2,3.8,3.8,0,0,1-4.066-.865l-5.825-5.825a88.849,88.849,0,0,0,32.675-21.072c15.906-15.906,24.562-35.5,24.97-52.8,1.47-.033,2.926-.009,4.358.076a3.339,3.339,0,0,1,3.127,3.13C244.665,103.448,235.945,125.041,218.688,142.3Z" transform="translate(-162.827 -81.916)" fill="url(#linear-gradient-2)"/>
					<path id="Path_457" data-name="Path 457" d="M149.495,301.151q-3.507,1.778-7.049,3.165a3.8,3.8,0,0,1-4.066-.865l-20.325-20.325a3.8,3.8,0,0,1-.865-4.066q1.387-3.535,3.165-7.049Z" transform="translate(-116.932 -223.734)" fill="url(#linear-gradient-2)"/>
					<path id="Path_458" data-name="Path 458" d="M195.39,364.537q-3.506,1.778-7.049,3.165a3.8,3.8,0,0,1-4.066-.865l-5.825-5.825a78.793,78.793,0,0,0,9.377-4.038Z" transform="translate(-162.827 -287.121)" fill="url(#linear-gradient-2)"/>
					<path id="Path_459" data-name="Path 459" d="M360.306,106.456a25.026,25.026,0,0,1-21.684-21.684,61.079,61.079,0,0,1,21.339-2.765,3.327,3.327,0,0,1,3.114,3.115,61.156,61.156,0,0,1-2.769,21.334Z" transform="translate(-282.322 -81.915)" fill="url(#linear-gradient-2)"/>
					<path id="Path_460" data-name="Path 460" d="M397.226,106.458a24.929,24.929,0,0,1-9.116-3,65.682,65.682,0,0,0,4.4-21.523q2.212-.05,4.37.078A3.324,3.324,0,0,1,400,85.125,61.141,61.141,0,0,1,397.226,106.458Z" transform="translate(-319.243 -81.917)" fill="url(#linear-gradient-2)"/>
				</g>
				<g id="Group_342" data-name="Group 342" transform="translate(54.367 23.559)">
					<path id="Path_461" data-name="Path 461" d="M256.13,178.019a11.39,11.39,0,1,1,0,16.108,11.39,11.39,0,0,1,0-16.108" transform="translate(-252.794 -174.683)" fill="url(#linear-gradient-2)"/>
					<path id="Path_462" data-name="Path 462" d="M254.23,190a10.077,10.077,0,0,0,13.886-13.879A11.392,11.392,0,1,1,254.23,190" transform="translate(-253.865 -175.759)" fill="url(#linear-gradient)"/>
				</g>
				<g id="Group_343" data-name="Group 343" transform="translate(18.895 57.299)">
					<path id="Path_463" data-name="Path 463" d="M114.39,330.776a4.354,4.354,0,0,1,0-6.158l15.8-15.8a4.354,4.354,0,0,1,6.158,6.158l-15.8,15.8A4.354,4.354,0,0,1,114.39,330.776Z" transform="translate(-113.115 -307.539)" fill="url(#linear-gradient)"/>
				</g>
			</g>
			<g id="Group_346" data-name="Group 346" transform="translate(21.451)">
				<path id="Path_464" data-name="Path 464" d="M205.091,41.916a7.646,7.646,0,1,1,7.646,7.646,7.646,7.646,0,0,1-7.646-7.646" transform="translate(-184.289 -34.27)" fill="url(#linear-gradient-2)"/>
				<path id="Path_465" data-name="Path 465" d="M219.928,48.506a6.765,6.765,0,0,0,0-13.18,7.648,7.648,0,1,1,0,13.18" transform="translate(-195.358 -34.271)" fill="url(#linear-gradient)"/>
				<g id="Group_345" data-name="Group 345" transform="translate(0 2.805)">
					<ellipse id="Ellipse_34" data-name="Ellipse 34" cx="5.484" cy="5.484" rx="5.484" ry="5.484" transform="translate(0 0)" fill="url(#linear-gradient-2)"/>
					<path id="Path_466" data-name="Path 466" d="M142.087,50.8a5.482,5.482,0,0,1-8.266,4.727,4.852,4.852,0,0,0,0-9.453,5.483,5.483,0,0,1,8.263,4.727Z" transform="translate(-131.119 -45.316)" fill="url(#linear-gradient)"/>
				</g>
			</g>
			<g id="Group_347" data-name="Group 347" transform="translate(8.466 106.906)">
				<ellipse id="Ellipse_35" data-name="Ellipse 35" cx="6.255" cy="6.255" rx="6.255" ry="6.255" transform="translate(0 0)" fill="url(#linear-gradient-2)"/>
				<path id="Path_467" data-name="Path 467" d="M93.617,461.486a6.257,6.257,0,0,1-6.254,6.257,6.194,6.194,0,0,1-3.173-.866,5.534,5.534,0,0,0,0-10.782,6.254,6.254,0,0,1,9.425,5.391Z" transform="translate(-81.107 -455.231)" fill="url(#linear-gradient)"/>
			</g>
			<g id="Group_348" data-name="Group 348" transform="translate(97.848 70.401)">
				<ellipse id="Ellipse_36" data-name="Ellipse 36" cx="6.255" cy="6.255" rx="6.255" ry="6.255" transform="translate(0 0)" fill="url(#linear-gradient-2)"/>
				<path id="Path_468" data-name="Path 468" d="M445.572,317.743A6.257,6.257,0,0,1,439.318,324a6.194,6.194,0,0,1-3.173-.866,5.534,5.534,0,0,0,0-10.782,6.254,6.254,0,0,1,9.425,5.392Z" transform="translate(-433.063 -311.488)" fill="url(#linear-gradient)"/>
			</g>
		</g>
		<g id="Group_350" data-name="Group 350" transform="translate(0 0)">
			<path id="Path_469" data-name="Path 469" d="M115.438,150.607a6.213,6.213,0,0,0-3.616,1.151l-4.893-10.59q1.667-1.52,3.271-3.123c17.1-17.1,26.609-39.011,25.447-58.622a5.237,5.237,0,0,0-4.915-4.916c-10.5-.625-21.926,1.856-33.045,7.17a1.9,1.9,0,1,0,1.643,3.437,76.821,76.821,0,0,1,8.453-3.448,26.932,26.932,0,0,0,20.707,20.7q-.914,2.7-2.064,5.4a89.028,89.028,0,0,1-18.919,27.586A90.758,90.758,0,0,1,85.916,151.4l-9.163-9.163a6.254,6.254,0,0,0-8.84-8.84l-9.161-9.161A90.768,90.768,0,0,1,74.8,102.645,92.064,92.064,0,0,1,91.275,89.53a1.9,1.9,0,0,0-2.01-3.236A95.882,95.882,0,0,0,72.107,99.952q-1.6,1.6-3.123,3.272l-10.594-4.9a6.255,6.255,0,0,0-9.528-8.039l-15.8,15.8a6.267,6.267,0,0,0,0,8.851h0a6.266,6.266,0,0,0,8.851,0l1.082-1.082L54.1,124.976q-1.441,2.958-2.626,5.972a5.7,5.7,0,0,0,1.291,6.109l5.738,5.738-6.555,6.555A6.259,6.259,0,0,0,60.8,158.2l6.555-6.555,5.736,5.736a5.724,5.724,0,0,0,4.047,1.681,5.646,5.646,0,0,0,2.062-.39q3.011-1.181,5.972-2.625l11.115,11.115-1.082,1.082a6.259,6.259,0,1,0,8.851,8.851l4.022-4.022a1.9,1.9,0,1,0-2.694-2.693l-4.022,4.022a2.449,2.449,0,1,1-3.464-3.464l15.8-15.8a2.449,2.449,0,1,1,3.464,3.464l-5.133,5.133a1.9,1.9,0,0,0,2.694,2.693l5.132-5.133a6.259,6.259,0,0,0-4.425-10.684Zm2.333-58.226a22.864,22.864,0,0,1-6.328-11.847,58.25,58.25,0,0,1,19.062-2.224,1.426,1.426,0,0,1,1.338,1.338,58.486,58.486,0,0,1-2.227,19.06A22.867,22.867,0,0,1,117.771,92.381Zm-82.02,19.87a2.453,2.453,0,0,1,0-3.464l15.8-15.8a2.45,2.45,0,0,1,3.464,3.464l-15.8,15.8A2.452,2.452,0,0,1,35.751,112.251Zm19.861-11.01,10.755,4.97a93.175,93.175,0,0,0-10.429,15.212L45.684,111.169Zm-.149,33.121a1.891,1.891,0,0,1-.439-2.025q.889-2.267,1.937-4.5l8.254,8.254L61.2,140.1Zm2.647,21.144a2.45,2.45,0,1,1-3.464-3.464l15.8-15.8a2.45,2.45,0,1,1,3.464,3.464Zm19.7-.38a1.892,1.892,0,0,1-2.025-.439l-5.736-5.736,4.014-4.014,8.252,8.252Q80.081,154.235,77.813,155.127Zm10.915-.914a93.175,93.175,0,0,0,15.213-10.428l4.97,10.757-9.927,9.927Z" transform="translate(-31.228 -55.515)" fill="#203049"/>
			<path id="Path_470" data-name="Path 470" d="M255.266,189.354a1.9,1.9,0,1,0-1.34,3.566,13.294,13.294,0,1,0-7.784-7.822,1.9,1.9,0,1,0,3.573-1.322,9.485,9.485,0,1,1,5.551,5.578Z" transform="translate(-190.949 -124.726)" fill="#203049"/>
			<path id="Path_471" data-name="Path 471" d="M207.142,45.872a9.551,9.551,0,1,0-9.551-9.551A9.562,9.562,0,0,0,207.142,45.872Zm0-15.292a5.741,5.741,0,1,1-5.741,5.741A5.748,5.748,0,0,1,207.142,30.579Z" transform="translate(-155.342 -19.972)" fill="#203049"/>
			<path id="Path_472" data-name="Path 472" d="M123.069,52.594A7.389,7.389,0,1,0,115.68,45.2,7.4,7.4,0,0,0,123.069,52.594Zm0-10.969a3.58,3.58,0,1,1-3.58,3.58A3.584,3.584,0,0,1,123.069,41.625Z" transform="translate(-94.233 -28.212)" fill="#203049"/>
			<path id="Path_473" data-name="Path 473" d="M172.672,440.547a1.9,1.9,0,0,0-2.693,0l-1.678,1.678-1.678-1.678a1.9,1.9,0,0,0-2.693,2.693l1.678,1.678-1.678,1.678a1.9,1.9,0,1,0,2.693,2.693l1.678-1.678,1.678,1.678a1.9,1.9,0,0,0,2.693-2.693l-1.678-1.678,1.678-1.678A1.9,1.9,0,0,0,172.672,440.547Z" transform="translate(-129.813 -328.251)" fill="#203049"/>
			<path id="Path_474" data-name="Path 474" d="M69.449,8.568a1.9,1.9,0,0,0,2.693,0l1.312-1.312,1.312,1.312a1.9,1.9,0,0,0,2.693-2.693L76.148,4.563l1.312-1.312A1.9,1.9,0,0,0,74.766.558L73.454,1.87,72.143.558a1.9,1.9,0,0,0-2.693,2.693l1.312,1.312L69.449,5.875A1.9,1.9,0,0,0,69.449,8.568Z" transform="translate(-59.326 0)" fill="#203049"/>
			<path id="Path_475" data-name="Path 475" d="M72.711,447.732a8.16,8.16,0,1,0,8.16,8.16A8.169,8.169,0,0,0,72.711,447.732Zm0,12.51a4.351,4.351,0,1,1,4.351-4.351A4.355,4.355,0,0,1,72.711,460.242Z" transform="translate(-56.088 -334.028)" fill="#203049"/>
			<path id="Path_476" data-name="Path 476" d="M424.666,303.989a8.16,8.16,0,1,0,8.16,8.16A8.169,8.169,0,0,0,424.666,303.989Zm0,12.511a4.351,4.351,0,1,1,4.351-4.351A4.356,4.356,0,0,1,424.666,316.5Z" transform="translate(-318.662 -226.789)" fill="#203049"/>
		</g>
	</g>
</svg>
