<svg id="Group_8805" data-name="Group 8805" xmlns="http://www.w3.org/2000/svg" width="21" height="21" viewBox="0 0 21 21">
  <g id="Group_309" data-name="Group 309">
    <path id="Path_402" data-name="Path 402" d="M20.816,4.774a.82.82,0,0,0-.637-.3H5.321L5.26,3.912l0-.018A4.488,4.488,0,0,0,.82,0a.82.82,0,0,0,0,1.641A2.843,2.843,0,0,1,3.63,4.1l.975,8.958A2.464,2.464,0,0,0,3.158,15.3c0,.007,0,.014,0,.021s0,.014,0,.021A2.464,2.464,0,0,0,5.619,17.8h.334a2.42,2.42,0,1,0,4.582,0h3.539a2.42,2.42,0,1,0,2.291-1.641H5.619a.821.821,0,0,1-.82-.82c0-.007,0-.014,0-.021s0-.014,0-.021a.821.821,0,0,1,.82-.82H16.092a3.757,3.757,0,0,0,3.4-2.3.82.82,0,0,0-1.5-.659,2.145,2.145,0,0,1-1.9,1.314H6.232L5.5,6.111H19.171l-.4,1.924a.82.82,0,1,0,1.606.335l.607-2.912A.82.82,0,0,0,20.816,4.774ZM16.365,17.8a.779.779,0,1,1-.779.779A.78.78,0,0,1,16.365,17.8Zm-8.121,0a.779.779,0,1,1-.779.779A.78.78,0,0,1,8.244,17.8Z" fill="#203049"/>
  </g>
</svg>
